<svg width="32" height="32" viewBox="0 0 32 32" fill="none" xmlns="http://www.w3.org/2000/svg">
<path d="M17.1602 9.01338C17.1602 5.80005 19.7602 3.21338 22.9468 3.21338C26.1335 3.21338 28.7468 5.81338 28.7468 9.01338C28.7468 12.2134 26.1468 14.8 22.9468 14.8C19.7468 14.8 17.1602 12.2 17.1602 9.01338Z" fill="#5A5A5A"/>
<path d="M15.3865 6.82665V11.1867C15.3865 13.48 13.5332 15.3333 11.2399 15.3333H6.87988C4.57321 15.3333 2.70654 13.48 2.70654 11.1867V6.82665C2.70654 4.51999 4.55988 2.65332 6.87988 2.65332H11.2399C13.5332 2.65332 15.3865 4.50665 15.3865 6.82665Z" fill="#5A5A5A"/>
<path d="M15.3865 20.8267V25.1733C15.3865 27.48 13.5332 29.3467 11.2399 29.3467H6.87988C4.57321 29.3467 2.70654 27.4933 2.70654 25.1733V20.8267C2.70654 18.52 4.55988 16.6533 6.87988 16.6533H11.2399C13.5332 16.6533 15.3865 18.5067 15.3865 20.8267Z" fill="#5A5A5A"/>
<path d="M29.2933 20.8267V25.1733C29.2933 27.48 27.4399 29.3467 25.1199 29.3467H20.7599C18.4666 29.3467 16.6133 27.4933 16.6133 25.1733V20.8267C16.6133 18.52 18.4666 16.6533 20.7599 16.6533H25.1199C27.4266 16.6533 29.2933 18.5067 29.2933 20.8267Z" fill="#5A5A5A"/>
</svg>
