<?xml version="1.0" encoding="UTF-8"?>
<svg id="Layer_1" data-name="Layer 1" xmlns="http://www.w3.org/2000/svg" viewBox="0 0 24 24">
  <defs>
    <style>
      .cls-1 {
        fill: #222;
      }
    </style>
  </defs>
  <path class="cls-1" d="m21.43,0H2.57c-.68,0-1.34.27-1.82.75s-.75,1.14-.75,1.82v18.86c0,.68.27,1.34.75,1.82.48.48,1.14.75,1.82.75h7.35v-8.16h-3.38v-3.84h3.38v-2.93c0-3.33,1.98-5.17,5.02-5.17,1.45,0,2.97.26,2.97.26v3.27h-1.68c-1.65,0-2.17,1.02-2.17,2.07v2.49h3.68l-.59,3.84h-3.1v8.16h7.35c.68,0,1.34-.27,1.82-.75.48-.48.75-1.14.75-1.82V2.57c0-.68-.27-1.34-.75-1.82-.48-.48-1.14-.75-1.82-.75Z"/>
</svg>