<?xml version="1.0" encoding="UTF-8"?>
<svg id="Layer_1" data-name="Layer 1" xmlns="http://www.w3.org/2000/svg" viewBox="0 0 24 24">
  <defs>
    <style>
      .cls-1 {
        fill: #222;
      }
    </style>
  </defs>
  <path class="cls-1" d="m20.44,20.45h-3.55v-5.57c0-1.33-.03-3.04-1.86-3.04s-2.13,1.44-2.13,2.94v5.67h-3.55v-11.45h3.41v1.56h.05c.48-.9,1.64-1.85,3.37-1.85,3.6,0,4.27,2.37,4.27,5.45v6.29h0ZM5.34,7.44c-1.15,0-2.06-.93-2.06-2.07s.92-2.06,2.06-2.06,2.07.92,2.07,2.06-.92,2.07-2.07,2.07Zm1.78,13.02h-3.56v-11.45h3.56v11.45ZM22.23,0H1.77C.79,0,0,.77,0,1.73v20.54C0,23.23.79,24,1.77,24h20.45c.98,0,1.78-.77,1.78-1.73V1.73C24,.77,23.2,0,22.22,0h0Z"/>
</svg>