<?xml version="1.0" encoding="UTF-8"?>
<svg id="Layer_1" data-name="Layer 1" xmlns="http://www.w3.org/2000/svg" viewBox="0 0 24 24">
  <defs>
    <style>
      .cls-1 {
        fill: #222;
      }
    </style>
  </defs>
  <path class="cls-1" d="m21.36,0H2.5C1.08,0-.07,1.15-.07,2.57v18.86c0,1.42,1.15,2.57,2.57,2.57h18.86c1.42,0,2.57-1.15,2.57-2.57V2.57c0-1.42-1.15-2.57-2.57-2.57Zm-2.62,8.51c.01.15.01.31.01.46,0,4.64-3.54,10-10,10-1.99,0-3.84-.58-5.39-1.58.28.03.56.04.85.04,1.64,0,3.16-.56,4.36-1.5-1.54-.03-2.84-1.04-3.28-2.44.54.08,1.03.08,1.59-.06-1.61-.33-2.81-1.74-2.81-3.45v-.04c.47.26,1.01.42,1.59.44-.48-.32-.88-.76-1.15-1.27-.27-.51-.42-1.08-.41-1.66,0-.65.17-1.25.48-1.77,1.73,2.13,4.33,3.53,7.24,3.68-.5-2.38,1.29-4.32,3.43-4.32,1.01,0,1.92.42,2.57,1.11.79-.15,1.55-.44,2.23-.85-.26.81-.81,1.5-1.54,1.93.71-.08,1.39-.27,2.02-.55-.48.7-1.08,1.32-1.76,1.82Z"/>
</svg>