<?xml version="1.0" encoding="UTF-8"?>
<svg id="Layer_1" data-name="Layer 1" xmlns="http://www.w3.org/2000/svg" viewBox="0 0 24 24">
  <defs>
    <style>
      .cls-1 {
        fill: #222;
      }
    </style>
  </defs>
  <path class="cls-1" d="m12,9.14c-.57,0-1.12.17-1.59.48-.47.31-.84.76-1.05,1.28-.22.52-.27,1.1-.16,1.65.11.55.38,1.06.78,1.46.4.4.91.67,1.46.78.55.11,1.13.05,1.65-.16.52-.22.97-.58,1.28-1.05.31-.47.48-1.02.48-1.59,0-.76-.3-1.48-.84-2.02-.54-.54-1.26-.84-2.02-.84Zm6.68-2.2c-.15-.37-.37-.7-.65-.98-.28-.28-.62-.5-.98-.65-1.12-.44-3.8-.34-5.05-.34s-3.92-.1-5.05.34c-.37.15-.7.37-.98.65s-.5.62-.65.98c-.44,1.12-.34,3.81-.34,5.05s-.1,3.93.35,5.05c.15.37.37.7.65.98.28.28.62.5.98.65,1.12.44,3.8.34,5.05.34s3.92.1,5.05-.34c.37-.15.7-.37.98-.65.28-.28.5-.62.65-.98.45-1.12.34-3.81.34-5.05s.1-3.92-.34-5.05h0Zm-6.68,9.45c-.87,0-1.72-.26-2.44-.74-.72-.48-1.29-1.17-1.62-1.97-.33-.8-.42-1.69-.25-2.54.17-.85.59-1.63,1.2-2.25.61-.61,1.4-1.03,2.25-1.2.85-.17,1.74-.08,2.54.25.8.33,1.49.9,1.97,1.62.48.72.74,1.57.74,2.44,0,.58-.11,1.15-.33,1.68-.22.53-.54,1.02-.95,1.43-.41.41-.89.73-1.43.95-.53.22-1.1.33-1.68.33Zm4.57-7.94c-.2,0-.4-.06-.57-.17-.17-.11-.3-.27-.38-.46-.08-.19-.1-.39-.06-.59.04-.2.14-.38.28-.53.14-.14.33-.24.52-.28.2-.04.41-.02.59.06s.35.21.46.38c.11.17.17.37.17.57,0,.13-.03.27-.08.39-.05.12-.13.24-.22.33-.09.1-.21.17-.33.22-.12.05-.26.08-.39.08h0ZM21.43,0H2.57C1.89,0,1.24.27.75.75.27,1.24,0,1.89,0,2.57v18.86C0,22.11.27,22.76.75,23.25c.48.48,1.14.75,1.82.75h18.86c.68,0,1.34-.27,1.82-.75.48-.48.75-1.14.75-1.82V2.57c0-.68-.27-1.34-.75-1.82C22.76.27,22.11,0,21.43,0Zm-.92,15.54c-.07,1.37-.38,2.59-1.38,3.59-1,1-2.22,1.32-3.59,1.38-1.41.08-5.66.08-7.07,0-1.37-.07-2.59-.38-3.59-1.38s-1.32-2.22-1.38-3.59c-.08-1.42-.08-5.66,0-7.07.07-1.37.38-2.59,1.38-3.59,1.01-1,2.22-1.32,3.59-1.38,1.41-.08,5.66-.08,7.07,0,1.37.07,2.59.38,3.59,1.38,1,1,1.32,2.22,1.38,3.59.08,1.41.08,5.65,0,7.06Z"/>
</svg>