<svg width="52" height="52" viewBox="0 0 52 52" fill="none" xmlns="http://www.w3.org/2000/svg">
<path d="M44.8258 41.7523L37.4667 34.4148C39.841 31.3899 41.1294 27.6545 41.1246 23.809C41.1246 20.3843 40.109 17.0365 38.2064 14.189C36.3037 11.3415 33.5994 9.12207 30.4354 7.81149C27.2714 6.50091 23.7898 6.158 20.4309 6.82613C17.072 7.49426 13.9866 9.14341 11.565 11.565C9.14335 13.9867 7.4942 17.072 6.82607 20.4309C6.15794 23.7898 6.50085 27.2714 7.81143 30.4354C9.12201 33.5994 11.3414 36.3038 14.1889 38.2064C17.0365 40.1091 20.3843 41.1246 23.809 41.1246C27.6545 41.1294 31.3899 39.8411 34.4148 37.4667L41.7523 44.8259C41.9535 45.0287 42.1929 45.1898 42.4566 45.2996C42.7204 45.4095 43.0033 45.4661 43.289 45.4661C43.5748 45.4661 43.8577 45.4095 44.1214 45.2996C44.3852 45.1898 44.6246 45.0287 44.8258 44.8259C45.0287 44.6246 45.1897 44.3853 45.2996 44.1215C45.4095 43.8577 45.466 43.5748 45.466 43.2891C45.466 43.0034 45.4095 42.7205 45.2996 42.4567C45.1897 42.1929 45.0287 41.9535 44.8258 41.7523ZM10.8223 23.809C10.8223 21.2405 11.5839 18.7297 13.0109 16.594C14.4379 14.4583 16.4662 12.7938 18.8392 11.8109C21.2122 10.8279 23.8234 10.5708 26.3425 11.0719C28.8617 11.5729 31.1757 12.8098 32.992 14.626C34.8082 16.4423 36.045 18.7563 36.5461 21.2754C37.0472 23.7946 36.7901 26.4058 35.8071 28.7788C34.8242 31.1518 33.1597 33.1801 31.024 34.6071C28.8883 36.0341 26.3775 36.7957 23.809 36.7957C20.3647 36.7957 17.0615 35.4275 14.626 32.992C12.1905 30.5565 10.8223 27.2533 10.8223 23.809Z" fill="#727272"/>
</svg>
